# xmcd
#
# Track frame offsets:
#	150
#	17753
#	34682
#	54403
#	71805
#	90731
#	107348
#	121582
#	138312
#	153573
#	169787
#	184800
#	197200
#	212443
#	228734
#	243818
#	264338
#	276863
#	292348
#	309450
#
# Disc length: 4335 seconds
#
# Revision: 0
# Processed by: cddbd v1.5.2PL0 Copyright (c) Steve Scherf et al.
# Submitted via: audiograbber 1.83.01
#
DISCID=1c10ed14
DTITLE=Various Artist - ERG NCT 151
DYEAR=2007
DGENRE=Country
TTITLE0=Stupid Boy - Keith Urban
TTITLE1=Long Trip Alone - Dierks Bentley
TTITLE2=Anyway - Martina McBride
TTITLE3=Lips Of An Angel - Jack Ingram
TTITLE4=Missing Missouri - Sara Evans
TTITLE5=Warm Safe Place - Aaron Pritchett
TTITLE6=Crazy Ex-Girlfriend - Miranda Lambert
TTITLE7=Innocence - Sarah Buxton
TTITLE8=Settlin' - Sugarland
TTITLE9=For The Music - Chris Cummings
TTITLE10=Kickin' Up Dust - Pirates Of The Mississippi
TTITLE11=Spoken Like A Man - Blaine Larsen
TTITLE12=They're All About You - Shane Yellowbird
TTITLE13=Young At Heart - Charlie Major and Kim Mitchell
TTITLE14=What I Can't Forget - Jason Blaine
TTITLE15=Long Way Around, The - Dixie Chicks
TTITLE16=House Like That - Donovan Chapman
TTITLE17=Bread On The Table - Tom Wurth
TTITLE18=Find Out Who Your Friends Are - Tracy Lawrence
TTITLE19=Red Flag - Cody McCarver
EXTD=
EXTT0=
EXTT1=
EXTT2=
EXTT3=
EXTT4=
EXTT5=
EXTT6=
EXTT7=
EXTT8=
EXTT9=
EXTT10=
EXTT11=
EXTT12=
EXTT13=
EXTT14=
EXTT15=
EXTT16=
EXTT17=
EXTT18=
EXTT19=
PLAYORDER=
